<svg width="182" height="19" viewBox="0 0 182 19" fill="none" xmlns="http://www.w3.org/2000/svg">
    <g clip-path="url(#clip0_88_152)">
        <path d="M3.27503 3.14818L2.57762 3.00591C1.87045 2.86224 1.50361 2.64744 1.50361 2.20947C1.50361 1.69897 1.96808 1.3684 2.71989 1.3684C3.40056 1.3684 3.8748 1.70873 3.94593 2.34337H5.34075C5.25148 1.03782 4.22211 0.419922 2.71989 0.419922C1.21767 0.419922 0.0892682 1.18846 0.0892682 2.37824C0.0892682 3.43412 0.786676 3.97112 2.18289 4.25706L2.88029 4.40072C3.6321 4.55276 4.04357 4.71316 4.04357 5.2948C4.0338 5.82204 3.5247 6.16237 2.74639 6.16237C1.96808 6.16237 1.44921 5.81367 1.40458 4.9991H0C0.0543978 6.49294 1.06424 7.11085 2.74639 7.11085C4.32114 7.11085 5.47465 6.34091 5.47465 5.08837C5.47465 3.83582 4.70471 3.44248 3.27363 3.14678L3.27503 3.14818Z" fill="white"/>
        <path d="M15.6902 4.75894C15.6902 5.63488 15.1979 6.02962 14.3666 6.02962C13.5352 6.02962 13.0512 5.63488 13.0512 4.75894V0.570312H5.55969V1.68895H7.52778V6.95856H8.93236V1.68895H11.6467V4.69478C11.6467 6.34066 12.676 7.1106 14.3666 7.1106C16.0571 7.1106 17.0948 6.34066 17.0948 4.69478V0.570312H15.6902V4.75755V4.75894Z" fill="white"/>
        <path d="M20.2556 0.570312H17.9736V6.95856H20.2556C22.2515 6.95856 23.5571 5.93895 23.5571 3.76444C23.5571 1.58992 22.2515 0.570312 20.2556 0.570312ZM20.1663 5.83992H19.3782V1.68895H20.1663C21.3923 1.68895 22.1525 2.32359 22.1525 3.76583C22.1525 5.20807 21.3923 5.84132 20.1663 5.84132V5.83992Z" fill="white"/>
        <path d="M25.6311 0.570312H24.2266V6.95856H25.6311V0.570312Z" fill="white"/>
        <path d="M29.6008 0.418457C27.5434 0.418457 26.3704 1.6989 26.3704 3.76462C26.3704 5.83034 27.542 7.11078 29.6008 7.11078C31.6595 7.11078 32.8214 5.83173 32.8214 3.76462C32.8214 1.6975 31.6581 0.418457 29.6008 0.418457ZM29.6008 6.0284C28.4472 6.0284 27.7763 5.18733 27.7763 3.76462C27.7763 2.34191 28.4472 1.50083 29.6008 1.50083C30.7543 1.50083 31.4168 2.34191 31.4168 3.76462C31.4168 5.18733 30.7543 6.0284 29.6008 6.0284Z" fill="white"/>
        <path d="M45.3552 7.73007H37.6739V3.49542H45.8476V0.418457H33.8103V17.9945H37.6739V10.807H45.3552V7.73007Z" fill="white"/>
        <path d="M51.2009 0.418457L44.8015 17.9945H48.6903L49.9693 14.2787H57.034L58.3382 17.9945H62.326L55.8777 0.418457H51.2009ZM51.0043 11.2004L52.1354 7.92674C52.5539 6.6463 52.9974 5.24312 53.4159 3.89015H53.5135C53.9069 5.31705 54.3504 6.6463 54.794 7.92674L55.9517 11.2004H51.0043Z" fill="white"/>
        <path d="M95.503 0.418457H74.9643V6.44963C74.9643 8.91148 74.9643 11.1516 75.0871 13.3428H74.988C74.2739 11.743 73.3882 9.97015 72.1579 7.82911L68.0223 0.418457H63.3706V17.9945H67.0139V11.9633C67.0139 9.50149 66.9902 7.26142 66.8911 5.07016H66.9902C67.6792 6.67141 68.5161 8.29497 69.7965 10.5839L73.9307 17.9931H78.5839V3.49542H86.2246V17.9945H90.0897V3.49542H95.5057V0.418457H95.503Z" fill="white"/>
        <path d="M99.0221 0.418457L92.6227 17.9945H96.5128L97.7919 14.2787H104.857L106.162 17.9945H110.15L103.699 0.418457H99.0221ZM98.8254 11.2004L99.958 7.92674C100.376 6.6463 100.819 5.24312 101.238 3.89015H101.336C101.729 5.31705 102.173 6.6463 102.617 7.92674L103.774 11.2004H98.8268H98.8254Z" fill="white"/>
        <path d="M118.728 7.50822L116.807 7.11488C114.863 6.72015 113.855 6.12874 113.855 4.92362C113.855 3.52044 115.135 2.60823 117.202 2.60823C119.073 2.60823 120.378 3.54415 120.575 5.29186H124.415C124.169 1.69742 121.338 -0.00146484 117.202 -0.00146484C113.067 -0.00146484 109.966 2.11726 109.966 5.38949C109.966 8.2935 111.885 9.77061 115.726 10.5587L117.646 10.9534C119.713 11.3705 120.845 11.8126 120.845 13.4153C120.82 14.8659 119.417 15.8018 117.276 15.8018C115.135 15.8018 113.708 14.8422 113.584 12.6007H109.719C109.867 16.7112 112.648 18.4115 117.276 18.4115C121.608 18.4115 124.784 16.2955 124.784 12.8476C124.784 9.39959 122.667 8.31721 118.728 7.50682V7.50822Z" fill="white"/>
        <path d="M141.397 0.418457H124.897V3.49542H130.312V17.9945H134.177V3.49542H141.397V17.9945H145.26V0.418457H141.688H141.397Z" fill="white"/>
        <path d="M155.035 15.4349C152.106 15.4349 150.309 13.319 150.309 9.2071C150.309 5.09519 152.106 2.97786 155.035 2.97786C156.882 2.97786 158.579 3.74082 158.875 5.80933H162.864C162.617 2.04333 159.542 -0.00146484 155.037 -0.00146484C149.449 -0.00146484 146.444 3.76453 146.444 9.20571C146.444 14.6469 149.276 18.4115 155.037 18.4115C159.517 18.4115 162.642 16.0487 162.963 12.3566H158.975C158.68 14.4976 156.907 15.4336 155.037 15.4336L155.035 15.4349Z" fill="white"/>
        <path d="M172.829 0C167.167 0 163.942 3.52191 163.942 9.20717C163.942 14.8924 167.167 18.4129 172.829 18.4129C178.49 18.4129 181.69 14.8938 181.69 9.20717C181.69 3.52051 178.49 0 172.829 0ZM172.829 15.435C169.654 15.435 167.807 13.1196 167.807 9.20717C167.807 5.29472 169.654 2.97793 172.829 2.97793C176.003 2.97793 177.825 5.29332 177.825 9.20717C177.825 13.121 176.003 15.435 172.829 15.435Z" fill="white"/>
    </g>
    <defs>
        <clipPath id="clip0_88_152">
            <rect width="181.69" height="18.4129" fill="white"/>
        </clipPath>
    </defs>
</svg>
