<svg width="182" height="19" viewBox="0 0 182 19" fill="none" xmlns="http://www.w3.org/2000/svg">
    <g clip-path="url(#clip0_46_334)">
        <path d="M3.27503 3.14818L2.57762 3.00591C1.87045 2.86224 1.50361 2.64744 1.50361 2.20947C1.50361 1.69897 1.96808 1.3684 2.71989 1.3684C3.40056 1.3684 3.8748 1.70873 3.94593 2.34337H5.34075C5.25148 1.03782 4.22211 0.419922 2.71989 0.419922C1.21767 0.419922 0.0892682 1.18846 0.0892682 2.37824C0.0892682 3.43412 0.786676 3.97112 2.18289 4.25706L2.88029 4.40072C3.6321 4.55276 4.04357 4.71316 4.04357 5.2948C4.0338 5.82204 3.5247 6.16237 2.74639 6.16237C1.96808 6.16237 1.44921 5.81367 1.40458 4.9991H0C0.0543978 6.49294 1.06424 7.11085 2.74639 7.11085C4.32114 7.11085 5.47465 6.34091 5.47465 5.08837C5.47465 3.83582 4.70471 3.44248 3.27363 3.14678L3.27503 3.14818Z" fill="black"/>
        <path d="M15.6901 4.75918C15.6901 5.63513 15.1977 6.02986 14.3664 6.02986C13.5351 6.02986 13.0511 5.63513 13.0511 4.75918V0.570557H5.55957V1.6892H7.52765V6.95881H8.93223V1.6892H11.6465V4.69502C11.6465 6.3409 12.6759 7.11084 14.3664 7.11084C16.0569 7.11084 17.0947 6.3409 17.0947 4.69502V0.570557H15.6901V4.75779V4.75918Z" fill="black"/>
        <path d="M20.2556 0.570557H17.9736V6.95881H20.2556C22.2515 6.95881 23.5571 5.9392 23.5571 3.76468C23.5571 1.59017 22.2515 0.570557 20.2556 0.570557ZM20.1663 5.84017H19.3782V1.6892H20.1663C21.3923 1.6892 22.1525 2.32384 22.1525 3.76608C22.1525 5.20832 21.3923 5.84156 20.1663 5.84156V5.84017Z" fill="black"/>
        <path d="M25.6311 0.570557H24.2266V6.95881H25.6311V0.570557Z" fill="black"/>
        <path d="M29.601 0.418457C27.5436 0.418457 26.3706 1.6989 26.3706 3.76462C26.3706 5.83034 27.5423 7.11078 29.601 7.11078C31.6597 7.11078 32.8216 5.83173 32.8216 3.76462C32.8216 1.6975 31.6584 0.418457 29.601 0.418457ZM29.601 6.0284C28.4475 6.0284 27.7766 5.18733 27.7766 3.76462C27.7766 2.34191 28.4475 1.50083 29.601 1.50083C30.7545 1.50083 31.417 2.34191 31.417 3.76462C31.417 5.18733 30.7545 6.0284 29.601 6.0284Z" fill="black"/>
        <path d="M45.3554 7.73007H37.6742V3.49542H45.8478V0.418457H33.8105V17.9945H37.6742V10.807H45.3554V7.73007Z" fill="black"/>
        <path d="M51.2007 0.418457L44.8013 17.9945H48.69L49.9691 14.2787H57.0338L58.3379 17.9945H62.3257L55.8775 0.418457H51.2007ZM51.004 11.2004L52.1352 7.92674C52.5536 6.6463 52.9972 5.24312 53.4156 3.89015H53.5133C53.9066 5.31705 54.3502 6.6463 54.7937 7.92674L55.9514 11.2004H51.004Z" fill="black"/>
        <path d="M95.503 0.418457H74.9643V6.44963C74.9643 8.91148 74.9643 11.1516 75.0871 13.3428H74.988C74.2739 11.743 73.3882 9.97015 72.1579 7.82911L68.0223 0.418457H63.3706V17.9945H67.0139V11.9633C67.0139 9.50149 66.9902 7.26142 66.8911 5.07016H66.9902C67.6792 6.67141 68.5161 8.29497 69.7965 10.5839L73.9307 17.9931H78.5839V3.49542H86.2246V17.9945H90.0897V3.49542H95.5057V0.418457H95.503Z" fill="black"/>
        <path d="M99.022 0.418457L92.6226 17.9945H96.5127L97.7917 14.2787H104.856L106.162 17.9945H110.15L103.699 0.418457H99.022ZM98.8253 11.2004L99.9579 7.92674C100.376 6.6463 100.818 5.24312 101.238 3.89015H101.336C101.729 5.31705 102.173 6.6463 102.616 7.92674L103.774 11.2004H98.8267H98.8253Z" fill="black"/>
        <path d="M118.728 7.50822L116.807 7.11488C114.863 6.72015 113.854 6.12874 113.854 4.92362C113.854 3.52044 115.135 2.60823 117.202 2.60823C119.072 2.60823 120.378 3.54415 120.575 5.29186H124.415C124.169 1.69742 121.338 -0.00146484 117.202 -0.00146484C113.066 -0.00146484 109.966 2.11726 109.966 5.38949C109.966 8.2935 111.885 9.77061 115.726 10.5587L117.645 10.9534C119.713 11.3705 120.845 11.8126 120.845 13.4153C120.82 14.8659 119.417 15.8018 117.276 15.8018C115.135 15.8018 113.708 14.8422 113.584 12.6007H109.719C109.867 16.7112 112.648 18.4115 117.276 18.4115C121.608 18.4115 124.784 16.2955 124.784 12.8476C124.784 9.39959 122.667 8.31721 118.728 7.50682V7.50822Z" fill="black"/>
        <path d="M141.397 0.418457H124.897V3.49542H130.312V17.9945H134.177V3.49542H141.397V17.9945H145.26V0.418457H141.688H141.397Z" fill="black"/>
        <path d="M155.035 15.4349C152.106 15.4349 150.309 13.319 150.309 9.2071C150.309 5.09519 152.106 2.97786 155.035 2.97786C156.882 2.97786 158.579 3.74082 158.875 5.80933H162.864C162.617 2.04333 159.542 -0.00146484 155.036 -0.00146484C149.449 -0.00146484 146.444 3.76453 146.444 9.20571C146.444 14.6469 149.276 18.4115 155.036 18.4115C159.517 18.4115 162.642 16.0487 162.963 12.3566H158.975C158.68 14.4976 156.907 15.4336 155.036 15.4336L155.035 15.4349Z" fill="black"/>
        <path d="M172.829 0C167.167 0 163.942 3.52191 163.942 9.20717C163.942 14.8924 167.167 18.4129 172.829 18.4129C178.49 18.4129 181.69 14.8938 181.69 9.20717C181.69 3.52051 178.49 0 172.829 0ZM172.829 15.435C169.654 15.435 167.807 13.1196 167.807 9.20717C167.807 5.29472 169.654 2.97793 172.829 2.97793C176.003 2.97793 177.825 5.29332 177.825 9.20717C177.825 13.121 176.003 15.435 172.829 15.435Z" fill="black"/>
    </g>
    <defs>
        <clipPath id="clip0_46_334">
            <rect width="181.69" height="18.4129" fill="white"/>
        </clipPath>
    </defs>
</svg>
