<svg width="90" height="109" viewBox="0 0 90 109" fill="none" xmlns="http://www.w3.org/2000/svg">
    <path d="M79.4901 54.5L85.5763 44.7299C89.7033 38.104 90.9993 30.2578 89.2253 22.6359C87.4514 15.0154 82.8227 8.54569 76.193 4.42111C66.337 -1.71129 54.2133 -1.25855 45.0059 4.57334C42.2497 2.82666 39.1903 1.53535 35.9141 0.774215C28.2877 -0.998709 20.4381 0.296536 13.807 4.42111C7.17727 8.54569 2.54865 15.0154 0.774675 22.6359C-0.999302 30.2565 0.296712 38.1027 4.42374 44.7299L10.5099 54.5L4.42374 64.2701C0.296712 70.8959 -0.999302 78.7422 0.774675 86.3641C2.54865 93.9846 7.17727 100.454 13.807 104.579C18.5 107.497 23.8035 109 29.2056 109C31.4365 109 33.6845 108.744 35.9128 108.226C39.1863 107.465 42.2445 106.175 44.998 104.429C47.7516 106.175 50.8111 107.465 54.0833 108.226C56.3129 108.744 58.5596 109 60.7905 109C66.1925 109 71.4974 107.497 76.189 104.579C82.8188 100.454 87.4474 93.9846 89.2214 86.3641C90.9954 78.7435 89.6993 70.8972 85.5723 64.2701L79.4862 54.5H79.4901ZM60.7826 5.99325C65.079 5.99325 69.2953 7.18745 73.0245 9.5076C78.2952 12.7871 81.9758 17.9313 83.386 23.9928C84.7976 30.0544 83.7668 36.2944 80.4868 41.562L75.9592 48.8295L72.9838 44.054L76.1982 38.8941C81.511 30.3641 78.89 19.1032 70.355 13.7923C65.0475 10.4905 58.6843 10.2569 53.3532 12.6007C52.3539 11.1559 51.2326 9.82256 50.014 8.59818C51.7131 7.72418 53.5331 7.0536 55.4449 6.60872C57.2189 6.19666 59.0073 5.99194 60.7826 5.99194V5.99325ZM71.11 73.2699C74.6764 78.9955 72.9168 86.5543 67.1878 90.1186C63.8959 92.1658 60 92.4532 56.6044 91.2445L69.4555 70.6125L71.11 73.2699ZM45.0046 96.9006C43.7782 95.7799 42.6542 94.5161 41.6654 93.108C42.8472 92.0162 43.8911 90.7642 44.763 89.364L45.002 88.9808L45.241 89.364C46.122 90.7786 47.1672 92.0293 48.3359 93.1093C47.3576 94.5043 46.2389 95.7707 45.0059 96.8992L45.0046 96.9006ZM18.8926 73.2699L20.5484 70.6125L33.3943 91.2353C32.9584 91.3889 32.5119 91.5227 32.0536 91.629C28.8576 92.3718 25.5775 91.8351 22.8161 90.1173C17.0871 86.553 15.3276 78.9942 18.8939 73.2686L18.8926 73.2699ZM18.8926 35.7275C17.1738 32.9677 16.6367 29.6895 17.3799 26.4954C18.1231 23.3012 20.0534 20.5966 22.8148 18.8788C24.7647 17.6649 26.9746 17.0415 29.2305 17.0415C30.1681 17.0415 31.1135 17.1492 32.0523 17.367C32.5106 17.4733 32.9571 17.6072 33.393 17.7607L20.5471 38.3836L18.8926 35.7261V35.7275ZM45.002 12.0928C46.2376 13.2241 47.3576 14.4917 48.3372 15.8893C47.1686 16.9694 46.1207 18.2174 45.2396 19.632L45.002 20.0139L44.7643 19.632C43.8924 18.2331 42.8485 16.9812 41.6667 15.888C42.6463 14.4917 43.7664 13.2227 45.002 12.0915V12.0928ZM71.1113 35.7275L69.4568 38.3849L56.6057 17.7528C60.0026 16.5442 63.8986 16.8316 67.1892 18.8788C72.9181 22.443 74.6777 30.0019 71.1113 35.7275ZM48.5342 25.6831L50.3305 22.7986C50.7152 22.1805 51.1498 21.611 51.6212 21.0874L65.926 44.0527L62.9505 48.8282L48.5342 25.6818V25.6831ZM59.4196 54.4974L45.0033 77.6438L30.5869 54.4974L45.0033 31.3509L59.4196 54.4974ZM38.384 21.0861C38.8581 21.6136 39.2927 22.1832 39.6748 22.7973L41.4711 25.6818L27.0547 48.8282L24.0793 44.0527L38.384 21.0874V21.0861ZM23.5239 54.4974L20.5484 59.2741L17.573 54.4987L20.5484 49.7219L23.5239 54.4974ZM27.0547 60.1665L41.4711 83.313L39.6735 86.1987C39.2914 86.8129 38.8581 87.3824 38.3827 87.91L24.078 64.9446L27.0534 60.1678L27.0547 60.1665ZM51.6212 87.9086C51.1498 87.385 50.7165 86.8155 50.3305 86.1974L48.5329 83.313L62.9492 60.1678L65.9247 64.9446L51.6199 87.91L51.6212 87.9086ZM66.4814 54.4974L69.4568 49.7219L72.4323 54.4974L69.4568 59.2728L66.4814 54.496V54.4974ZM9.51587 41.5607C6.23448 36.2931 5.20502 30.0531 6.61659 23.9915C8.02815 17.93 11.7074 12.7844 16.9781 9.50629C20.7086 7.18614 24.9236 5.99194 29.22 5.99194C30.9953 5.99194 32.7837 6.19535 34.5577 6.60872C36.4682 7.0536 38.2869 7.72287 39.986 8.59555C38.7727 9.81206 37.654 11.1506 36.6468 12.606C35.6147 12.1545 34.5354 11.7923 33.4127 11.5312C28.658 10.4249 23.7694 11.228 19.6489 13.7923C11.1139 19.1032 8.49167 30.3628 13.8057 38.8941L17.0202 44.054L14.0447 48.8308L9.51719 41.5633L9.51587 41.5607ZM34.5577 102.387C28.4926 103.798 22.2489 102.769 16.9781 99.4897C11.7074 96.2103 8.02684 91.066 6.61659 85.0045C5.20502 78.943 6.23579 72.703 9.51587 67.4354L14.0434 60.1678L17.0188 64.9433L13.8044 70.1033C11.24 74.2213 10.4363 79.107 11.542 83.8589C12.6489 88.612 15.5272 92.6408 19.6476 95.2037C22.5614 97.016 25.8572 97.9491 29.22 97.9491C30.6132 97.9491 32.0182 97.789 33.4114 97.4649C34.5341 97.2037 35.6134 96.8415 36.6455 96.3901C37.6461 97.8375 38.7688 99.1735 39.9886 100.399C38.2895 101.273 36.4696 101.944 34.5577 102.389V102.387ZM83.3887 85.0032C81.9771 91.0647 78.2978 96.2103 73.0271 99.4884C65.8144 103.977 57.0758 104.025 50.0219 100.391C51.2391 99.1682 52.3579 97.8362 53.3558 96.394C55.6826 97.4176 58.205 97.9504 60.7511 97.9504C64.0391 97.9504 67.3664 97.0633 70.3576 95.2024C78.8927 89.8915 81.5149 78.632 76.2008 70.1007L72.9864 64.9407L75.9619 60.1652L80.4894 67.4327C83.7708 72.7003 84.8002 78.9403 83.3887 85.0019V85.0032Z" fill="#c9c9c9"/>
</svg>
