<svg width="41" height="50" viewBox="0 0 41 50" fill="none" xmlns="http://www.w3.org/2000/svg">
    <path d="M36.2122 25L38.9847 20.5183C40.8648 17.4789 41.4552 13.8797 40.6471 10.3834C39.8389 6.88778 37.7304 3.92004 34.7101 2.02803C30.2202 -0.784996 24.6971 -0.577314 20.5027 2.09786C19.2471 1.29663 17.8533 0.70429 16.3609 0.355145C12.8866 -0.458123 9.31069 0.136026 6.28987 2.02803C3.26965 3.92004 1.16105 6.88778 0.352908 10.3834C-0.455237 13.8791 0.135169 17.4783 2.01526 20.5183L4.78783 25L2.01526 29.4817C0.135169 32.5211 -0.455237 36.1203 0.352908 39.6165C1.16105 43.1122 3.26965 46.0799 6.28987 47.9719C8.42778 49.3107 10.8438 50 13.3048 50C14.3211 50 15.3452 49.8826 16.3603 49.6448C17.8515 49.2957 19.2447 48.704 20.4991 47.9033C21.7535 48.704 23.1473 49.2957 24.6379 49.6448C25.6536 49.8826 26.6771 50 27.6934 50C30.1544 50 32.571 49.3107 34.7083 47.9719C37.7286 46.0799 39.8372 43.1122 40.6453 39.6165C41.4534 36.1209 40.863 32.5217 38.9829 29.4817L36.2104 25H36.2122ZM27.6899 2.7492C29.6471 2.7492 31.5679 3.29699 33.2667 4.36129C35.6678 5.86562 37.3445 8.22536 37.987 11.0059C38.63 13.7864 38.1604 16.6488 36.6662 19.0651L34.6036 22.3989L33.2482 20.2083L34.7125 17.8413C37.1328 13.9285 35.9388 8.76293 32.0506 6.32673C29.6328 4.81217 26.734 4.70501 24.3053 5.78014C23.8501 5.11737 23.3393 4.50576 22.7842 3.94412C23.5582 3.5432 24.3873 3.23559 25.2582 3.03152C26.0664 2.8425 26.8811 2.7486 27.6899 2.7486V2.7492ZM32.3946 33.61C34.0192 36.2365 33.2177 39.7038 30.6078 41.3388C29.1081 42.2779 27.3333 42.4097 25.7864 41.8553L31.6409 32.391L32.3946 33.61ZM20.5021 44.4498C19.9434 43.9357 19.4313 43.356 18.9809 42.7101C19.5193 42.2092 19.9948 41.635 20.392 40.9927L20.5009 40.8169L20.6098 40.9927C21.0111 41.6416 21.4873 42.2153 22.0197 42.7107C21.574 43.3506 21.0644 43.9315 20.5027 44.4492L20.5021 44.4498ZM8.60663 33.61L9.36094 32.391L15.213 41.8511C15.0144 41.9215 14.811 41.9829 14.6022 42.0317C13.1462 42.3724 11.652 42.1262 10.394 41.3382C7.78413 39.7032 6.98257 36.2358 8.60723 33.6094L8.60663 33.61ZM8.60663 16.3887C7.82361 15.1228 7.57896 13.6191 7.91753 12.1538C8.2561 10.6886 9.13543 9.44797 10.3934 8.65999C11.2817 8.10316 12.2884 7.81722 13.3161 7.81722C13.7432 7.81722 14.1739 7.86659 14.6016 7.96651C14.8104 8.01527 15.0138 8.07668 15.2124 8.14711L9.36034 17.6071L8.60663 16.3881V16.3887ZM20.5009 5.54718C21.0638 6.06608 21.574 6.64759 22.0203 7.28869C21.4879 7.78411 21.0105 8.35659 20.6092 9.00552L20.5009 9.1807L20.3926 9.00552C19.9954 8.36382 19.5199 7.78953 18.9815 7.28809C19.4278 6.64759 19.938 6.06548 20.5009 5.54657V5.54718ZM32.3952 16.3887L31.6415 17.6077L25.787 8.14349C27.3345 7.58908 29.1093 7.72091 30.6084 8.65999C33.2183 10.295 34.0198 13.7623 32.3952 16.3887ZM22.11 11.7812L22.9283 10.4581C23.1036 10.1746 23.3016 9.9133 23.5163 9.67311L30.0329 20.2077L28.6775 22.3983L22.11 11.7806V11.7812ZM27.0689 24.9988L20.5015 35.6164L13.934 24.9988L20.5015 14.3812L27.0689 24.9988ZM17.4861 9.67251C17.702 9.9145 17.9 10.1758 18.0741 10.4575L18.8924 11.7806L12.3249 22.3983L10.9695 20.2077L17.4861 9.67311V9.67251ZM10.7164 24.9988L9.36094 27.19L8.00546 24.9994L9.36094 22.8082L10.7164 24.9988ZM12.3249 27.5993L18.8924 38.2169L18.0735 39.5407C17.8994 39.8224 17.702 40.0837 17.4855 40.3257L10.9689 29.7911L12.3243 27.5999L12.3249 27.5993ZM23.5163 40.3251C23.3016 40.0849 23.1042 39.8236 22.9283 39.5401L22.1094 38.2169L28.6769 27.5999L30.0323 29.7911L23.5157 40.3257L23.5163 40.3251ZM30.286 24.9988L31.6415 22.8082L32.9969 24.9988L31.6415 27.1894L30.286 24.9982V24.9988ZM4.33501 19.0645C2.84015 16.6482 2.37118 13.7858 3.01422 11.0053C3.65727 8.22476 5.33338 5.86442 7.73448 4.36068C9.43392 3.29639 11.3541 2.7486 13.3113 2.7486C14.1201 2.7486 14.9348 2.8419 15.743 3.03152C16.6133 3.23559 17.4418 3.5426 18.2158 3.94291C17.6631 4.50094 17.1535 5.11496 16.6947 5.78255C16.2245 5.57547 15.7328 5.40932 15.2213 5.28953C13.0553 4.78207 10.8283 5.15048 8.95119 6.32673C5.063 8.76293 3.86843 13.9279 6.28927 17.8413L7.75362 20.2083L6.39814 22.3995L4.33561 19.0657L4.33501 19.0645ZM15.743 46.9667C12.9799 47.6138 10.1356 47.1418 7.73448 45.6375C5.33338 44.1332 3.65667 41.7734 3.01422 38.9929C2.37118 36.2124 2.84075 33.35 4.33501 30.9337L6.39754 27.5999L7.75303 29.7905L6.28867 32.1575C5.12042 34.0465 4.75434 36.2876 5.25801 38.4674C5.76227 40.6477 7.07349 42.4958 8.95059 43.6714C10.278 44.5028 11.7794 44.9308 13.3113 44.9308C13.946 44.9308 14.5861 44.8573 15.2207 44.7086C15.7322 44.5889 16.2239 44.4227 16.6941 44.2156C17.1499 44.8796 17.6613 45.4924 18.217 46.0547C17.443 46.4556 16.6139 46.7632 15.743 46.9673V46.9667ZM37.9882 38.9923C37.3451 41.7728 35.669 44.1332 33.2679 45.6369C29.9821 47.6956 26.0012 47.7179 22.7878 46.051C23.3423 45.49 23.8519 44.879 24.3065 44.2174C25.3665 44.687 26.5156 44.9314 27.6755 44.9314C29.1734 44.9314 30.6891 44.5244 32.0518 43.6708C35.94 41.2346 37.1346 36.0697 34.7137 32.1563L33.2494 29.7893L34.6048 27.5987L36.6674 30.9324C38.1622 33.3488 38.6312 36.2112 37.9882 38.9917V38.9923Z" fill="white"/>
</svg>
